<svg version="1" xmlns="http://www.w3.org/2000/svg" width="2730.667" height="2730.667" viewBox="0 0 2048.000000 2048.000000"><path d="M995.8 64.5c-.1.1-8.2.5-17.9.9-9.6.4-18.6.8-20 1.1-1.3.2-7 .6-12.6 1-5.7.3-11.1.8-12 .9-1 .2-5.4.7-9.8 1.1-4.4.4-8.9.8-10 1-1.1.2-4.6.6-7.9 1-3.2.4-6.8.8-8 1-1.1.2-5.7.9-10.1 1.5-10 1.4-12.6 1.8-19.5 3-3 .5-7.1 1.2-9 1.5-4 .7-19.5 3.5-22.5 4.1-1.1.3-4 .9-6.5 1.4-78 15.6-161.2 44.6-235.5 82-49.2 24.8-86.9 47.3-126.3 75.6-6.8 4.9-13.4 9.6-14.6 10.4-3.1 2.1-19 14.3-19.6 15-.3.3-4.4 3.6-9.2 7.3-4.7 3.7-9.2 7.3-10 8-.7.7-2.6 2.3-4.2 3.5-5.1 3.9-27.9 23.9-39.1 34.2-10.3 9.5-45.7 45.1-54.6 55-43.2 47.6-77 92.3-109.1 144-8.5 13.8-11.5 18.9-20.3 34.5-42.6 75.7-74.2 155.5-95.4 241.2-4.1 16.7-10.3 45.1-12.5 57.9-6.2 35.4-11.3 76-13.1 104.4-1.4 22.1-2 40-2 66 0 43.6 1.6 72.6 6.1 112 .4 3 .8 6.6.9 8l2 14c18.1 128.4 61.5 250.7 128.3 362 8.4 14.1 31 49.1 34.4 53.5.5.5 6.7 9 13.8 18.8 18.3 25.1 42.4 54.9 59.6 73.7 2.2 2.5 7 7.6 10.5 11.5 9.8 10.7 43.2 44 53.9 53.7 71 64.5 140.2 112 223.5 153.3 63.8 31.7 128.2 55.5 194 71.6 8.8 2.2 17.1 4.2 18.5 4.6 3.6.9 2.8.7 22 4.6 9.6 2 23.1 4.5 30 5.7 6.9 1.1 13.6 2.3 15 2.5 1.4.3 6.1.9 10.5 1.5s9.1 1.3 10.5 1.5c2.4.4 24.8 3 33.5 3.9 2.3.2 8.3.7 13.5 1.1 5.2.4 11.1.9 13 1.1 24.6 2.4 117.7 2.4 133.1-.1 1.3-.2 6-.6 10.4-.9 22.8-1.5 55.7-5.7 84.5-10.6 3-.5 7.1-1.2 9-1.5 1.9-.3 6.7-1.2 10.5-2 3.9-.8 8.1-1.6 9.5-1.9 1.4-.2 5.9-1.2 10-2.1 4.1-.9 8.6-1.9 10-2.1 6.7-1.3 39.5-9.8 55.5-14.4 30.9-8.9 77.5-25.1 98-34.1 1.1-.5 7.2-3.1 13.5-5.8 77.6-33 155.3-79.5 222-133 12.6-10.1 32-26.4 37.6-31.6.6-.5 5.1-4.6 9.9-9 12.2-11 48-46.7 59.7-59.5 10.3-11.4 26.9-30.5 33.3-38.5 2.2-2.8 4.3-5.2 4.6-5.5 1-.9 22.4-28.4 24.9-32 1.3-1.9 2.7-3.7 3-4 1-.8 23.3-32.9 30.2-43.5 61.1-93.9 105.5-197.5 130.9-305 3-12.6 9.4-43.5 10.5-50.4.3-1.8.8-4.3 1-5.5.4-2 .9-5 1.9-11.1.4-2.4 3.2-22.9 6-43 .2-1.7.7-6.4 1-10.5.4-4.1.9-8.6 1.1-10 .2-1.4.6-7 1-12.5.3-5.5.7-10.5.9-11.2 2.5-7.8 2.5-111.9 0-133-.2-2.1-.7-7.2-.9-11.3-.3-4.1-1-12-1.6-17.5-.5-5.5-1.2-12.5-1.5-15.5-.4-3-.8-6.6-1-8-.3-1.4-.7-4.8-1-7.5-1.2-9.7-5.7-37.2-9.1-55-2-9.9-3.7-19.1-4-20.5-.3-1.4-2.9-12.5-5.9-24.7-23.1-94.3-55.9-174.8-107.6-264.1-25.2-43.5-65.7-99.2-103.6-142.4-26.5-30.2-64.1-67.7-91.3-90.8-4.7-4-10.1-8.7-12-10.4-9.9-8.9-49.4-39.3-64.5-49.7-2.7-1.9-5.2-3.7-5.5-4-2.4-2.7-58.9-38.2-75-47.1-23.7-13.1-31.8-17.3-51.2-26.7-53.6-26.1-100.1-44.1-155.3-60.1-18.8-5.4-51.2-13.6-67.5-17-5.8-1.2-11.4-2.4-12.5-2.6-17.8-3.8-62.7-10.5-85.5-12.9-17.1-1.7-23.1-2.3-35-3-5.2-.4-11.5-.9-14-1.1-5.5-.4-79.7-1.3-80.2-.9zm81.7 128.9c1.7.2 7.3.7 12.5 1.1 5.2.3 10.9.8 12.5 1 1.7.2 5.7.7 9 1 5.8.5 18.3 2 25.5 3.1 1.9.2 6.7.9 10.5 1.5 41.3 5.8 90.7 17.5 135.5 32.1 25.7 8.3 69 25.1 69 26.7-.1 5-24.6 70.5-34.1 90.9-1.6 3.5-2.9 6.5-2.9 6.7 0 .2-2.6 5.7-5.7 12.2-3.2 6.5-5.8 12-5.8 12.3 0 .3-.3.9-.6 1.5-.4.5-3.8 7.1-7.7 14.5-15.9 30.8-36.4 65.4-51.8 87.7-2.4 3.5-6.5 9.3-9 13-6.1 8.9-27.4 37.5-28.8 38.8-.6.5-2.7 3-4.6 5.5-15.1 19.7-37 44.1-63.5 70.5-19 19.1-24.2 24-40.1 38.2-5.5 4.9-17.6 15-27.6 23.1-.7.6-2.9 2.4-4.8 4-37.6 30.7-90.1 64.9-138.5 90.2-5.5 2.8-10.4 5.5-11 5.8-.5.4-1.2.7-1.5.8-.3 0-7.6 3.5-16.3 7.7-8.7 4.2-16 7.7-16.3 7.7-.2 0-3.7 1.5-7.6 3.3-28.6 13.2-83.6 32.9-116.1 41.7-4 1-8 2.2-9 2.6-1.6.6-1.7-15.5-1.7-299.4V239.1l16.9-5.5c36.5-12 90.3-25.4 120.1-30 1.9-.3 7.8-1.2 13-2 16.1-2.5 31.1-4.5 38.5-5 2.2-.2 6.5-.6 9.5-.9 9.9-1.1 16.7-1.6 29.2-2.3 6.8-.4 12.5-.8 12.7-1 .6-.5 86.9.4 90.6 1zM591 1024.1c0 623.8-.2 710-1.5 709.6-6.2-2.4-60.3-39.9-78.5-54.4-6.4-5.1-19.6-15.8-20-16.3-.3-.3-3.4-2.9-6.9-5.8-22.2-18.3-59.4-54.6-80.1-78.2-3.6-4-7.2-8.1-8-8.9-3.8-4.1-22.3-26.6-29.6-36.1-14.5-18.8-41.4-56.9-41.4-58.6 0-.3-1.1-2-2.4-3.7-6.1-8.2-25-41-38-66-48.1-92.2-80.9-204.6-89.1-304.8-.3-3.5-.7-7.8-1-9.4-2.7-18-2.7-121.9 0-135 .2-1.1.7-5.4 1-9.5.6-7.5 2.1-22.4 3-28.3.2-1.8 1.1-8.2 2-14.2 10.8-76.4 34-155 67.6-228.5 11.2-24.7 35.9-70.8 47.4-88.5 1.8-2.8 6.5-10.2 10.6-16.5 13.5-21.2 41.6-59.9 54.2-74.5 1.9-2.2 8.9-10.4 15.7-18.3 18.7-21.9 50.4-54.2 71.2-72.7 27.4-24.4 51.3-43.3 79.3-63 15.2-10.6 42.5-28.5 43.8-28.5.4 0 .7 319.5.7 710.1zm909.4-682.4c21.4 14.9 57.6 43.2 72.6 56.9 1.9 1.7 6.4 5.7 10 8.9 8.4 7.5 34.2 32.8 44.5 43.6 12.5 13.2 30.1 32.8 32.4 36.3.8 1.2 1.8 2.3 2.2 2.6.3.3 3.2 3.6 6.3 7.5 3.1 3.8 6.3 7.7 6.9 8.5 10.5 12.8 39.7 53.2 39.7 54.9 0 .5.4 1.1.8 1.3.5.2 2.4 2.8 4.3 5.8 2 3 5.6 8.6 8.1 12.5 5.8 9 21.2 35.3 27.7 47.5 5.2 9.5 26.1 51.6 26.1 52.4 0 .3 1.7 4.2 3.8 8.8 9.3 19.9 24.1 59.7 33.3 89 11.4 36.8 23.6 91 28.4 125.8 1.7 12.6 4.3 33.7 4.3 35 0 .8.5 6 1.1 11.6 3.6 35.4 3.7 106.8.1 145.9-1.2 13.1-2 21.1-2.5 24.5-.2 1.4-.6 5-1 8-1.5 13.4-5.9 40.2-10.1 60.7-19.3 95.7-57.6 192.2-108.7 273.8-44.7 71.3-95.9 131.4-160.6 188.5-4.1 3.6-8.3 7.2-9.5 8-1.2.8-2.5 1.9-3.1 2.5-.5.6-3.5 3.1-6.5 5.6-3 2.4-5.7 4.6-6 4.9-3.2 3.6-55.8 41.8-56.1 40.8-.2-.8-.8-3.7-1.4-6.8-.3-1.9-1.1-5.5-1.6-8-.6-2.5-1.2-5.4-1.4-6.5-.2-1.1-.6-3.1-1-4.5-.3-1.4-.8-3.6-1.1-5-.3-1.4-.7-3.3-1-4.2-.5-1.8-1.2-4.7-2-8.8-.3-1.4-.8-3.4-1.1-4.5-.3-1.1-.8-2.9-.9-4-.2-1.1-1.2-5-2.2-8.7-1.1-3.8-1.8-6.8-1.6-6.8.2 0-.4-1.6-1.2-3.5-.8-1.9-1.1-3.5-.8-3.5.4 0 .1-.6-.5-1.3-.6-.8-.8-1.7-.4-2 .3-.4 0-1.3-.7-2.2-.7-.9-1-1.8-.7-2.2.4-.3.2-1.2-.4-2-.6-.7-.8-1.3-.4-1.3s.2-.7-.5-1.5-1-1.5-.6-1.5c.3 0 0-1.6-.8-3.5s-1.3-3.5-1.1-3.5c.3 0-.1-1.7-.9-3.7-1.2-3.4-6.7-20.6-7.2-22.6-.1-.4-.3-.9-.4-1.2-.1-.3-.3-.9-.4-1.4 0-.5-.4-1.3-.8-1.7-.5-.4-.8-1.8-.8-3 0-1.3-.5-2.6-1-2.9-.6-.4-.8-1-.5-1.5.3-.5.1-1.1-.5-1.5-.6-.4-.8-1.1-.5-1.6.4-.5.2-.9-.2-.9-.5 0-1-1-1-2.2-.1-1.3-.7-3.2-1.2-4.3-.6-1.1-2.3-5.8-3.9-10.5-1.7-4.7-3.5-9.6-4-11-.9-2.2-2.2-5.5-2.7-7-.1-.3-.5-1.4-1-2.5-.4-1.1-3.2-8.1-6.2-15.5s-6-14.8-6.8-16.5c-.7-1.6-2.8-6.4-4.5-10.5-3.5-8.1-8.3-18.6-13.3-29-1.8-3.6-3.2-6.7-3.2-7-.1-.3-1.4-3-2.9-6-1.6-3-5.8-11.1-9.3-18-3.6-6.9-6.9-13-7.4-13.6-.5-.6-.6-1.4-.2-1.7.3-.4.1-.7-.5-.7-.7 0-1.2-.4-1.2-.8 0-1.2-10.3-19.6-11.2-20-.5-.2-.6-.8-.2-1.3.3-.5 0-.9-.5-.9-.6 0-1.1-.4-1.1-.9 0-1.8-26.7-45.4-28.1-45.9-.5-.2-.9-.8-.9-1.3 0-.6-1.8-3.7-4-6.9s-4-6.3-4-6.8c0-.6-.6-1.2-1.4-1.5-.8-.3-2.2-2.2-3.1-4.1-1-2-2.1-3.6-2.6-3.6s-.9-.6-.9-1.3c0-.8-.9-2.2-2-3.2s-2-2.4-2-3.2c0-.7-.4-1.3-1-1.3-.5 0-1-.7-1-1.5s-.4-1.5-.9-1.5-2-1.7-3.2-3.8c-1.3-2-2.8-4.2-3.4-4.9-.5-.6-3.5-4.6-6.5-8.8-3-4.3-6.8-9.1-8.3-10.9-1.5-1.7-3.5-4.3-4.4-5.9-1-1.5-2.1-2.7-2.6-2.7-.4 0-.5-.5-.2-1 .3-.6.2-1-.3-1-.4 0-3-2.9-5.7-6.5s-5.3-6.5-5.7-6.5c-.5 0-.8-.6-.8-1.4 0-.8-.4-1.6-.8-1.8-.5-.2-4.4-4.6-8.8-9.8-4.3-5.2-9.6-11.4-11.7-13.7-2.2-2.3-4.5-5-5.2-6-.7-1-3-3.6-5.1-5.9-2.2-2.2-7.7-8.2-12.4-13.3-10.7-11.7-42.4-43.4-52.6-52.6-4.3-3.9-8.4-7.7-9.3-8.6-.9-.8-5.6-5.1-10.6-9.4-4.9-4.3-9.7-8.5-10.6-9.4-.9-.9-3.3-3-5.4-4.6-2.1-1.7-9.3-7.5-16.1-13-6.7-5.5-15.2-12.3-18.8-15-3.7-2.8-7.2-5.5-7.9-6.1-.7-.5-5.5-4.1-10.7-7.9-5.2-3.8-9.7-7.2-10-7.5-.3-.3-1.2-1-2.1-1.5-.9-.6-5.1-3.5-9.4-6.5-4.3-3-8.5-6-9.4-6.5-.9-.6-3.2-2.2-5.2-3.8-2-1.5-4.2-2.7-4.8-2.7-.6 0-1.1-.5-1.1-1 0-.6-.4-1-.8-1-.5 0-4.9-2.7-10-6-5-3.3-9.5-6-10.1-6-.6 0-1.1-.3-1.1-.8 0-.4-1.7-1.6-3.7-2.7-2.1-1.1-4-2.2-4.3-2.6-.5-.5-20.3-12.2-29.5-17.4-16.9-9.5-20.6-11.5-21.5-11.5-.6 0-1-.5-1-1.1 0-.5-.4-.7-1-.4-.5.3-1 .1-1-.4 0-.6-.9-1.1-1.9-1.1-1.1 0-2.1-.4-2.3-.8-.5-1.3-34.5-18.1-35.2-17.5-.3.4-.6.2-.6-.4 0-.9-4.2-2.7-4.6-2-.1.1-1.1-.6-2.2-1.6s-2.6-2-3.4-2.1c-1.6-.4-4.4-1.5-12.8-5.4-3.6-1.6-7.5-3.3-8.7-3.7-1.3-.3-2.3-1.1-2.3-1.6s-.3-.8-.7-.7c-1 .3-13.2-4.3-13.8-5.1-.2-.4 4.2-2.4 9.8-4.5 61.1-23.1 127-55.9 182.7-90.9 11.6-7.3 45.3-29.8 46-30.7.3-.3 2.8-2.2 5.5-4 11.1-7.5 62.7-47.6 65.5-50.9.3-.4 3.9-3.5 8-7 22.4-19.1 60.8-56.2 81.6-79 3.3-3.6 7-7.6 8.4-9.1 1.4-1.4 6.5-7.3 11.5-13.1 4.9-5.7 9.2-10.6 9.5-10.9 3.8-3.4 35.4-43.8 48.8-62.3 52.1-71.9 98.7-158.9 129.1-241.2 2.9-7.7 5.9-15.9 6.8-18.3.9-2.3 1.8-4.2 2.1-4.2.2 0 4.1 2.5 8.6 5.7zm-746.6 740.5c.6.1 1.2.6 1.2 1.1 0 .5.6.7 1.4.4.7-.3 1.7-.2 2.2.3.5.4 2.7 1.3 4.9 1.9 2.2.7 4.9 1.6 6 2.1 1.8.8 15.7 5.7 18 6.4.6.2 2.4.9 4 1.5 1.7.7 4.6 1.9 6.5 2.6 1.9.7 4.9 1.9 6.5 2.6 1.7.7 3.2 1.3 3.5 1.4.3.1 2.3.9 4.5 1.9 2.2 1 4.7 1.9 5.6 2.1.9.2 2.5.8 3.5 1.4 2.2 1.3 11.3 5.1 11.7 4.9.1-.1 1.3.5 2.7 1.2 1.4.8 2.7 1.5 3 1.5.3.1 5.8 2.7 12.4 5.8 6.5 3.1 12.2 5.7 12.6 5.7.4 0 1.3.7 2 1.5.6.8 1.5 1.4 1.8 1.3 1.3-.4 5.2 1.4 5.2 2.3 0 .5.3.8.8.7 1.1-.4 7.2 2.6 7.2 3.4 0 .5.9.8 2 .8s2 .5 2 1.1c0 .5.5.7 1 .4.6-.3 1-.1 1 .5s.4.9.9.6c.5-.4 1.1-.3 1.3.1.1.5 2.7 2 5.6 3.5 8.6 4.4 11.7 6.2 12.4 7.3.4.5.8.6.8.2 0-.4 1.7.4 3.7 1.8 2.1 1.4 4.3 2.5 5 2.5.7 0 1.3.3 1.3.8 0 .4 2.1 1.8 4.8 3.2 2.6 1.3 6.6 3.7 8.9 5.2 2.3 1.5 4.6 2.8 5.2 2.8.6 0 1.1.4 1.1 1 0 .5.4 1 .9 1 .6 0 3 1.3 5.4 3 2.5 1.6 4.9 3 5.5 3 .6 0 1.2.3 1.4.7.3.7 12 8.8 17 11.8 4.4 2.6 20.3 14 20.6 14.7.2.4.8.8 1.3.8.8 0 3.9 2.2 12.4 8.8.6.4 4.8 3.7 9.5 7.2 8.2 6.2 9.7 7.3 12.3 9.5 3.4 2.8 12.4 10.1 13.5 11 2.2 1.7 3.5 2.8 11.2 9.5 8.7 7.6 7.5 6.5 18 16 4.6 4.1 12.1 11.1 16.7 15.5 4.5 4.5 8.3 7.8 8.3 7.5 0-.3.9.8 2 2.5 1.1 1.6 2 2.7 2 2.4 0-.6 3.3 2.7 18.5 18.6 3.8 3.9 17 18.6 22.1 24.5 2.2 2.4 4.8 5.4 5.9 6.6 7.1 7.7 24.8 29.9 38.8 48.8 3.7 5 7.4 9.9 8.2 10.9.8.9 1.5 2 1.5 2.3 0 .6 4.2 6.6 5.1 7.4.5.4 16.3 24.2 21.9 33 4.9 7.6 7 11.2 7 12 0 .6.5 1 1 1 .6 0 1 .7 1 1.5s.5 1.5 1.1 1.5c.5 0 .7.4.4 1-.3.5-.2 1 .4 1 .6 0 1.3 1.1 1.7 2.5.3 1.4 1 2.5 1.5 2.5s.9.5.9 1c0 .6 1.7 3.8 3.8 7.3 2 3.4 4.4 7.6 5.2 9.2.8 1.7 1.7 3.2 2 3.5 1.9 1.9 33 64.8 33 66.8 0 .3.8 2.4 1.9 4.6 5.1 11.1 7.1 15.5 7.1 16 0 .2.5 1.7 1.1 3.3.6 1.5 1 3 1.1 3.3 0 .3.4 1 .9 1.7.6.6 1.4 2.4 1.9 4 .4 1.5 3.2 8.9 6 16.3s5.3 14.2 5.5 15c.2.8.9 2.8 1.6 4.5.6 1.6 1.3 3.5 1.5 4.2.1.6.8 2.9 1.5 5s1.2 4.1 1.1 4.5c-.1.5.2.8.6.8.4 0 .8.8.9 1.8.1.9.9 3.7 1.8 6.2s1.7 5.2 1.9 6c.2.8.7 2.8 1.1 4.5.4 1.6 1 3.4 1.4 4 .3.5.6 1.4.7 2 .1.5 1 3.7 1.9 7 .9 3.3 2.4 8.7 3.2 12 .8 3.3 1.6 6.4 1.8 7 .1.5.3 1.3.4 1.7.1.4.7 2.2 1.2 4 .6 1.8 1.2 4.2 1.4 5.3.3 1.1.9 4.1 1.5 6.6.6 2.6 1.3 5.3 1.4 6 .2.8.6 2.5.9 3.9.4 1.4.9 3.6 1.1 5 .5 2.2 1.2 5.8 2.1 10 .2.8.4 1.5.5 1.5.1 0 .3.9.5 2 .8 5.3 1.5 9.2 2 11.5.4 2.2 1.4 7.9 2.9 17 .3 1.4.5 2.5.6 2.5.1 0 .4 1.6.6 3.5.7 5 1.1 7.5 1.3 7.5.2 0 .9 6.7 1.4 12.4.2 2.2-.8 2.9-9.2 6.3-42.4 17.3-100.4 34.6-144.8 43.3-32.3 6.4-63.2 10.9-88.3 13-4.1.4-8.5.8-9.8 1-16.9 2.6-122.9 2.6-133.2 0-.8-.2-5.7-.6-10.8-1-5.1-.3-10.1-.8-11-.9-.9-.2-4.8-.7-8.7-1.1-7.6-.7-12.6-1.3-16.5-2-1.4-.2-4.5-.7-7-1-38.9-5.1-95.2-18.4-140.2-33.1l-16.8-5.5V1081l2.8.6c1.5.3 3.3.6 4 .6z"/></svg>